<?xml version="1.0" encoding="UTF-8" standalone="no"?><!-- Generator: Gravit.io --><svg xmlns="http://www.w3.org/2000/svg" xmlns:xlink="http://www.w3.org/1999/xlink" style="isolation:isolate" viewBox="0 0 24 16" width="24pt" height="16pt"><defs><clipPath id="_clipPath_55fa6KlkcBOh5jw6bagHWqfZDu6jnOT1"><rect width="24" height="16"/></clipPath></defs><g clip-path="url(#_clipPath_55fa6KlkcBOh5jw6bagHWqfZDu6jnOT1)"><mask id="_mask_KIu5AttljWqHKGC4r2odqK21GfX5NEPS"><rect x="0" y="0" width="24" height="16" fill="white" stroke="none"/></mask><rect x="0" y="0" width="24" height="16" transform="matrix(1,0,0,1,0,0)" fill="none"/><rect x="0" y="0" width="24" height="16" transform="matrix(1,0,0,1,0,0)" fill="none" mask="url(#_mask_KIu5AttljWqHKGC4r2odqK21GfX5NEPS)" vector-effect="non-scaling-stroke" stroke-width="1" stroke="rgb(0,0,0)" stroke-linejoin="miter" stroke-linecap="square" stroke-miterlimit="2"/><mask id="_mask_lZiY6AKvko12atXvyUpYsNeyQd1a3fem"><path d=" M 8.072 8 C 8.072 7.262 8.277 6.571 8.634 5.981 C 9.322 4.845 10.573 4.085 12 4.085 C 14.168 4.085 15.928 5.84 15.928 8 C 15.928 10.16 14.168 11.915 12 11.915 C 9.832 11.915 8.072 10.16 8.072 8 Z " fill="white" stroke="none"/></mask><path d=" M 8.072 8 C 8.072 7.262 8.277 6.571 8.634 5.981 C 9.322 4.845 10.573 4.085 12 4.085 C 14.168 4.085 15.928 5.84 15.928 8 C 15.928 10.16 14.168 11.915 12 11.915 C 9.832 11.915 8.072 10.16 8.072 8 Z " fill="none"/><path d=" M 8.072 8 C 8.072 7.262 8.277 6.571 8.634 5.981 C 9.322 4.845 10.573 4.085 12 4.085 C 14.168 4.085 15.928 5.84 15.928 8 C 15.928 10.16 14.168 11.915 12 11.915 C 9.832 11.915 8.072 10.16 8.072 8 Z " fill="none" mask="url(#_mask_lZiY6AKvko12atXvyUpYsNeyQd1a3fem)" vector-effect="non-scaling-stroke" stroke-width="1.2" stroke="rgb(0,0,0)" stroke-linejoin="miter" stroke-linecap="square" stroke-miterlimit="3"/></g></svg>