<?xml version="1.0" encoding="UTF-8" standalone="no"?><!-- Generator: Gravit.io --><svg xmlns="http://www.w3.org/2000/svg" xmlns:xlink="http://www.w3.org/1999/xlink" style="isolation:isolate" viewBox="0 0 24 16" width="24pt" height="16pt"><defs><clipPath id="_clipPath_yViGWSolzVZkOB9ZgBmUs0w2SIhmYh3y"><rect width="24" height="16"/></clipPath></defs><g clip-path="url(#_clipPath_yViGWSolzVZkOB9ZgBmUs0w2SIhmYh3y)"><mask id="_mask_wr8AfyTMetU4bPKcOALHHpVAbQQG7GOE"><rect x="0" y="0" width="24" height="16" fill="white" stroke="none"/></mask><rect x="0" y="0" width="24" height="16" transform="matrix(1,0,0,1,0,0)" fill="none"/><rect x="0" y="0" width="24" height="16" transform="matrix(1,0,0,1,0,0)" fill="none" mask="url(#_mask_wr8AfyTMetU4bPKcOALHHpVAbQQG7GOE)" vector-effect="non-scaling-stroke" stroke-width="1" stroke="rgb(0,0,0)" stroke-linejoin="miter" stroke-linecap="square" stroke-miterlimit="2"/><path d=" M 4.103 2 L 4.649 3.46 L 6.206 3.528 L 4.986 4.498 L 5.403 6 L 4.103 5.14 L 2.803 6 L 3.22 4.498 L 2 3.528 L 3.557 3.46 L 4.103 2 Z " fill="rgb(0,0,0)"/><path d=" M 8.715 3.455 L 9.344 3.138 L 9.298 2.435 L 9.794 2.936 L 10.449 2.675 L 10.126 3.302 L 10.577 3.844 L 9.881 3.73 L 9.505 4.326 L 9.398 3.629 L 8.715 3.455 Z " fill="rgb(0,0,0)"/><path d=" M 7.477 2.287 L 7.879 1.708 L 7.503 1.112 L 8.177 1.315 L 8.628 0.773 L 8.644 1.478 L 9.298 1.739 L 8.633 1.972 L 8.587 2.675 L 8.16 2.114 L 7.477 2.287 Z " fill="rgb(0,0,0)"/><path d=" M 7.341 8.003 L 7.742 7.424 L 7.366 6.828 L 8.041 7.031 L 8.492 6.489 L 8.507 7.194 L 9.162 7.455 L 8.497 7.688 L 8.451 8.391 L 8.024 7.83 L 7.341 8.003 Z " fill="rgb(0,0,0)"/><path d=" M 9.422 6.666 L 9.479 5.963 L 8.854 5.636 L 9.54 5.473 L 9.658 4.778 L 10.025 5.38 L 10.722 5.277 L 10.263 5.812 L 10.577 6.444 L 9.926 6.173 L 9.422 6.666 Z " fill="rgb(0,0,0)"/></g></svg>