<?xml version="1.0" encoding="UTF-8" standalone="no"?><!-- Generator: Gravit.io --><svg xmlns="http://www.w3.org/2000/svg" xmlns:xlink="http://www.w3.org/1999/xlink" style="isolation:isolate" viewBox="0 0 24 16" width="24pt" height="16pt"><defs><clipPath id="_clipPath_ORn34JqdfE4bpVWpwWCfTYNzc6wIIxnG"><rect width="24" height="16"/></clipPath></defs><g clip-path="url(#_clipPath_ORn34JqdfE4bpVWpwWCfTYNzc6wIIxnG)"><mask id="_mask_WS0wYTMD52ghwO9le0MF9MRP22vRTAWt"><rect x="5.693" y="2.003" width="0.508" height="3.99" fill="white" stroke="none"/></mask><rect x="5.693" y="2.003" width="0.508" height="3.99" transform="matrix(0.84,0.543,-0.546,0.838,3.137,-2.582)" fill="rgb(0,0,0)"/><rect x="5.693" y="2.003" width="0.508" height="3.99" transform="matrix(0.84,0.543,-0.546,0.838,3.137,-2.582)" fill="rgb(0,0,0)" mask="url(#_mask_WS0wYTMD52ghwO9le0MF9MRP22vRTAWt)" vector-effect="non-scaling-stroke" stroke-width="6" stroke="rgb(0,0,0)" stroke-linejoin="miter" stroke-linecap="square" stroke-miterlimit="2"/><mask id="_mask_UaeAC8upO3LmUZPPsayZFjXzNSGzS48U"><rect x="6.568" y="2.584" width="0.552" height="3.99" fill="white" stroke="none"/></mask><rect x="6.568" y="2.584" width="0.552" height="3.99" transform="matrix(0.84,0.543,-0.546,0.838,3.598,-2.976)" fill="rgb(0,0,0)"/><rect x="6.568" y="2.584" width="0.552" height="3.99" transform="matrix(0.84,0.543,-0.546,0.838,3.598,-2.976)" fill="rgb(0,0,0)" mask="url(#_mask_UaeAC8upO3LmUZPPsayZFjXzNSGzS48U)" vector-effect="non-scaling-stroke" stroke-width="6" stroke="rgb(0,0,0)" stroke-linejoin="miter" stroke-linecap="square" stroke-miterlimit="2"/><mask id="_mask_X5xKSmFcmwDSnmXmeHyBSeTpB86yAdNM"><rect x="4.768" y="1.401" width="0.497" height="3.99" fill="white" stroke="none"/></mask><rect x="4.768" y="1.401" width="0.497" height="3.99" transform="matrix(0.84,0.543,-0.546,0.838,2.659,-2.174)" fill="rgb(0,0,0)"/><rect x="4.768" y="1.401" width="0.497" height="3.99" transform="matrix(0.84,0.543,-0.546,0.838,2.659,-2.174)" fill="rgb(0,0,0)" mask="url(#_mask_X5xKSmFcmwDSnmXmeHyBSeTpB86yAdNM)" vector-effect="non-scaling-stroke" stroke-width="6" stroke="rgb(0,0,0)" stroke-linejoin="miter" stroke-linecap="square" stroke-miterlimit="2"/><mask id="_mask_1R8ArH0qMMKP8ncdHr5MFiPti1rdMJs2"><rect x="4.767" y="10.63" width="0.506" height="3.99" fill="white" stroke="none"/></mask><rect x="4.767" y="10.63" width="0.506" height="3.99" transform="matrix(0.84,-0.543,0.546,0.838,-6.088,4.775)" fill="rgb(0,0,0)"/><rect x="4.767" y="10.63" width="0.506" height="3.99" transform="matrix(0.84,-0.543,0.546,0.838,-6.088,4.775)" fill="rgb(0,0,0)" mask="url(#_mask_1R8ArH0qMMKP8ncdHr5MFiPti1rdMJs2)" vector-effect="non-scaling-stroke" stroke-width="6" stroke="rgb(0,0,0)" stroke-linejoin="miter" stroke-linecap="square" stroke-miterlimit="2"/><mask id="_mask_ZuevOtPnyBpD1yV1gsD30e6RYwES1bLG"><rect x="6.3" y="12.038" width="0.508" height="1.798" fill="white" stroke="none"/></mask><rect x="6.3" y="12.038" width="0.508" height="1.798" transform="matrix(0.84,-0.543,0.546,0.838,-6.012,5.659)" fill="rgb(0,0,0)"/><rect x="6.3" y="12.038" width="0.508" height="1.798" transform="matrix(0.84,-0.543,0.546,0.838,-6.012,5.659)" fill="rgb(0,0,0)" mask="url(#_mask_ZuevOtPnyBpD1yV1gsD30e6RYwES1bLG)" vector-effect="non-scaling-stroke" stroke-width="6" stroke="rgb(0,0,0)" stroke-linejoin="miter" stroke-linecap="square" stroke-miterlimit="2"/><mask id="_mask_eb1FIcaZ6vfybiotywicjehbYdU7pOJi"><rect x="5.116" y="10.198" width="0.494" height="1.798" fill="white" stroke="none"/></mask><rect x="5.116" y="10.198" width="0.494" height="1.798" transform="matrix(0.84,-0.543,0.546,0.838,-5.199,4.714)" fill="rgb(0,0,0)"/><rect x="5.116" y="10.198" width="0.494" height="1.798" transform="matrix(0.84,-0.543,0.546,0.838,-5.199,4.714)" fill="rgb(0,0,0)" mask="url(#_mask_eb1FIcaZ6vfybiotywicjehbYdU7pOJi)" vector-effect="non-scaling-stroke" stroke-width="6" stroke="rgb(0,0,0)" stroke-linejoin="miter" stroke-linecap="square" stroke-miterlimit="2"/><mask id="_mask_9F025sTkBBg62MC1BpwAts4hbzjzTcdd"><rect x="6.577" y="9.447" width="0.542" height="3.99" fill="white" stroke="none"/></mask><rect x="6.577" y="9.447" width="0.542" height="3.99" transform="matrix(0.84,-0.543,0.546,0.838,-5.148,5.576)" fill="rgb(0,0,0)"/><rect x="6.577" y="9.447" width="0.542" height="3.99" transform="matrix(0.84,-0.543,0.546,0.838,-5.148,5.576)" fill="rgb(0,0,0)" mask="url(#_mask_9F025sTkBBg62MC1BpwAts4hbzjzTcdd)" vector-effect="non-scaling-stroke" stroke-width="6" stroke="rgb(0,0,0)" stroke-linejoin="miter" stroke-linecap="square" stroke-miterlimit="2"/><mask id="_mask_5Q1FUqoPnv5McQ0AxIaIjxNpwc4e6OOz"><rect x="17.481" y="4.607" width="0.519" height="1.798" fill="white" stroke="none"/></mask><rect x="17.481" y="4.607" width="0.519" height="1.798" transform="matrix(0.84,-0.543,0.546,0.838,-0.16,10.531)" fill="rgb(0,0,0)"/><rect x="17.481" y="4.607" width="0.519" height="1.798" transform="matrix(0.84,-0.543,0.546,0.838,-0.16,10.531)" fill="rgb(0,0,0)" mask="url(#_mask_5Q1FUqoPnv5McQ0AxIaIjxNpwc4e6OOz)" vector-effect="non-scaling-stroke" stroke-width="6" stroke="rgb(0,0,0)" stroke-linejoin="miter" stroke-linecap="square" stroke-miterlimit="2"/><mask id="_mask_KTVdIxQSbcarJWoXv7hXVx9EgGoXfKel"><rect x="16.283" y="2.767" width="0.53" height="1.798" fill="white" stroke="none"/></mask><rect x="16.283" y="2.767" width="0.53" height="1.798" transform="matrix(0.84,-0.543,0.546,0.838,0.654,9.585)" fill="rgb(0,0,0)"/><rect x="16.283" y="2.767" width="0.53" height="1.798" transform="matrix(0.84,-0.543,0.546,0.838,0.654,9.585)" fill="rgb(0,0,0)" mask="url(#_mask_KTVdIxQSbcarJWoXv7hXVx9EgGoXfKel)" vector-effect="non-scaling-stroke" stroke-width="6" stroke="rgb(0,0,0)" stroke-linejoin="miter" stroke-linecap="square" stroke-miterlimit="2"/><mask id="_mask_ou0uVOAEtXPEAxIcKS9Xbl2hVhQveCan"><rect x="17.812" y="1.994" width="0.51" height="3.99" fill="white" stroke="none"/></mask><rect x="17.812" y="1.994" width="0.51" height="3.99" transform="matrix(0.84,-0.543,0.546,0.838,0.721,10.463)" fill="rgb(0,0,0)"/><rect x="17.812" y="1.994" width="0.51" height="3.99" transform="matrix(0.84,-0.543,0.546,0.838,0.721,10.463)" fill="rgb(0,0,0)" mask="url(#_mask_ou0uVOAEtXPEAxIcKS9Xbl2hVhQveCan)" vector-effect="non-scaling-stroke" stroke-width="6" stroke="rgb(0,0,0)" stroke-linejoin="miter" stroke-linecap="square" stroke-miterlimit="2"/><mask id="_mask_rEoE94qSavUzSszNBb9zq6nZo9U7wPX7"><rect x="19.294" y="3.426" width="0.539" height="1.798" fill="white" stroke="none"/></mask><rect x="19.294" y="3.426" width="0.539" height="1.798" transform="matrix(0.84,-0.543,0.546,0.838,0.777,11.331)" fill="rgb(0,0,0)"/><rect x="19.294" y="3.426" width="0.539" height="1.798" transform="matrix(0.84,-0.543,0.546,0.838,0.777,11.331)" fill="rgb(0,0,0)" mask="url(#_mask_rEoE94qSavUzSszNBb9zq6nZo9U7wPX7)" vector-effect="non-scaling-stroke" stroke-width="6" stroke="rgb(0,0,0)" stroke-linejoin="miter" stroke-linecap="square" stroke-miterlimit="2"/><mask id="_mask_sZkUXrz21s8rBvcL61aZyfwKdHs0DjGq"><rect x="18.098" y="1.59" width="0.539" height="1.798" fill="white" stroke="none"/></mask><rect x="18.098" y="1.59" width="0.539" height="1.798" transform="matrix(0.84,-0.543,0.546,0.838,1.588,10.383)" fill="rgb(0,0,0)"/><rect x="18.098" y="1.59" width="0.539" height="1.798" transform="matrix(0.84,-0.543,0.546,0.838,1.588,10.383)" fill="rgb(0,0,0)" mask="url(#_mask_sZkUXrz21s8rBvcL61aZyfwKdHs0DjGq)" vector-effect="non-scaling-stroke" stroke-width="6" stroke="rgb(0,0,0)" stroke-linejoin="miter" stroke-linecap="square" stroke-miterlimit="2"/><mask id="_mask_AKGfBzi3WIKrYkhk2HxwvCMTDZlx8nGm"><rect x="16.286" y="11.451" width="0.504" height="1.798" fill="white" stroke="none"/></mask><rect x="16.286" y="11.451" width="0.504" height="1.798" transform="matrix(0.84,0.543,-0.546,0.838,9.396,-6.982)" fill="rgb(0,0,0)"/><rect x="16.286" y="11.451" width="0.504" height="1.798" transform="matrix(0.84,0.543,-0.546,0.838,9.396,-6.982)" fill="rgb(0,0,0)" mask="url(#_mask_AKGfBzi3WIKrYkhk2HxwvCMTDZlx8nGm)" vector-effect="non-scaling-stroke" stroke-width="6" stroke="rgb(0,0,0)" stroke-linejoin="miter" stroke-linecap="square" stroke-miterlimit="2"/><rect x="17.483" y="9.611" width="0.491" height="1.798" transform="matrix(0.84,0.543,-0.546,0.838,8.583,-7.927)" fill="rgb(0,0,0)"/><mask id="_mask_If25yuc6u68fz2iksjJP0Z0VETgFLDXL"><rect x="17.206" y="12.047" width="0.507" height="1.798" fill="white" stroke="none"/></mask><rect x="17.206" y="12.047" width="0.507" height="1.798" transform="matrix(0.84,0.543,-0.546,0.838,9.87,-7.386)" fill="rgb(0,0,0)"/><rect x="17.206" y="12.047" width="0.507" height="1.798" transform="matrix(0.84,0.543,-0.546,0.838,9.87,-7.386)" fill="rgb(0,0,0)" mask="url(#_mask_If25yuc6u68fz2iksjJP0Z0VETgFLDXL)" vector-effect="non-scaling-stroke" stroke-width="6" stroke="rgb(0,0,0)" stroke-linejoin="miter" stroke-linecap="square" stroke-miterlimit="2"/><rect x="18.403" y="10.211" width="0.508" height="1.798" transform="matrix(0.84,0.543,-0.546,0.838,9.06,-8.334)" fill="rgb(0,0,0)"/><mask id="_mask_nrRMLfhjpLEZOiqArcIy4W7uIcYS10Iu"><rect x="18.107" y="12.638" width="0.529" height="1.798" fill="white" stroke="none"/></mask><rect x="18.107" y="12.638" width="0.529" height="1.798" transform="matrix(0.84,0.543,-0.546,0.838,10.339,-7.786)" fill="rgb(0,0,0)"/><rect x="18.107" y="12.638" width="0.529" height="1.798" transform="matrix(0.84,0.543,-0.546,0.838,10.339,-7.786)" fill="rgb(0,0,0)" mask="url(#_mask_nrRMLfhjpLEZOiqArcIy4W7uIcYS10Iu)" vector-effect="non-scaling-stroke" stroke-width="6" stroke="rgb(0,0,0)" stroke-linejoin="miter" stroke-linecap="square" stroke-miterlimit="2"/><rect x="19.282" y="10.795" width="0.553" height="1.798" transform="matrix(0.84,0.543,-0.546,0.838,9.523,-8.729)" fill="rgb(0,0,0)"/><rect x="17.483" y="9.611" width="0.491" height="1.798" transform="matrix(0.84,0.543,-0.546,0.838,8.583,-7.927)" fill="rgb(0,0,0)"/><rect x="18.403" y="10.211" width="0.508" height="1.798" transform="matrix(0.84,0.543,-0.546,0.838,9.06,-8.334)" fill="rgb(0,0,0)"/><rect x="19.282" y="10.795" width="0.553" height="1.798" transform="matrix(0.84,0.543,-0.546,0.838,9.523,-8.729)" fill="rgb(0,0,0)"/><mask id="_mask_ntOsH8p58OjU4sxfp3GwEkYeZwPeZNEe"><rect x="0" y="0" width="24" height="16" fill="white" stroke="none"/></mask><rect x="0" y="0" width="24" height="16" transform="matrix(1,0,0,1,0,0)" fill="none"/><rect x="0" y="0" width="24" height="16" transform="matrix(1,0,0,1,0,0)" fill="none" mask="url(#_mask_ntOsH8p58OjU4sxfp3GwEkYeZwPeZNEe)" vector-effect="non-scaling-stroke" stroke-width="1" stroke="rgb(0,0,0)" stroke-linejoin="miter" stroke-linecap="square" stroke-miterlimit="2"/><mask id="_mask_6kJoS8zyrjHyOhVUkOVG3SjKPoNE2ygE"><path d=" M 8.072 8 C 8.072 7.262 8.277 6.571 8.634 5.981 C 9.322 4.845 10.573 4.085 12 4.085 C 14.168 4.085 15.928 5.84 15.928 8 C 15.928 10.16 14.168 11.915 12 11.915 C 9.832 11.915 8.072 10.16 8.072 8 Z " fill="white" stroke="none"/></mask><path d=" M 8.072 8 C 8.072 7.262 8.277 6.571 8.634 5.981 C 9.322 4.845 10.573 4.085 12 4.085 C 14.168 4.085 15.928 5.84 15.928 8 C 15.928 10.16 14.168 11.915 12 11.915 C 9.832 11.915 8.072 10.16 8.072 8 Z " fill="none"/><path d=" M 8.072 8 C 8.072 7.262 8.277 6.571 8.634 5.981 C 9.322 4.845 10.573 4.085 12 4.085 C 14.168 4.085 15.928 5.84 15.928 8 C 15.928 10.16 14.168 11.915 12 11.915 C 9.832 11.915 8.072 10.16 8.072 8 Z " fill="none" mask="url(#_mask_6kJoS8zyrjHyOhVUkOVG3SjKPoNE2ygE)" vector-effect="non-scaling-stroke" stroke-width="1.2" stroke="rgb(0,0,0)" stroke-linejoin="miter" stroke-linecap="square" stroke-miterlimit="3"/><path d=" M 9 6 C 8.068 8.224 10.696 9.41 11.662 8.365 C 11.989 8.039 12.095 7.882 12.338 7.635 C 14.002 6.237 15.896 8.374 15 10" fill="none" vector-effect="non-scaling-stroke" stroke-width="0.6" stroke="rgb(0,0,0)" stroke-linejoin="miter" stroke-linecap="round" stroke-miterlimit="3"/></g></svg>